{"title":"Indian Anal Sex","uid":5071282,"size":1534088,"categoryP":"porn","categoryS":"movie_clips","magnet":"?xt=urn:btih:dc3a75946d4ae1c7cebc70cd01b3b9b815bc7a0d&amp;dn=Indian+Anal+Sex&amp;tr=udp%3A%2F%2Ftracker.openbittorrent.com%3A80&amp;tr=udp%3A%2F%2Fopen.demonii.com%3A1337&amp;tr=udp%3A%2F%2Ftracker.coppersurfer.tk%3A6969&amp;tr=udp%3A%2F%2Fexodus.desync.com%3A6969","seeders":0,"leechers":1,"uploader":"siddhattha","files":3,"time":1251428194,"description":"General \nComplete name : D:indianstar_TorrentAugIndian Anal SexIndian Anal Sex.wmv \nFormat : Windows Media \nFile size : 1.46 MiB \nDuration : 50s 944ms \nOverall bit rate mode : Constant \nOverall bit rate : 241 Kbps \nMaximum Overall bit rate : 236 Kbps \nEncoded date : UTC 2009-02-09 19:24:33.921 \n\nVideo \nID : 2 \nFormat : WMV2 \nCodec ID : WMV2 \nCodec ID/Info : Windows Media Video 8 \nDescription of the codec : Windows Media Video V8 \nDuration : 50s 933ms \nBit rate mode : Constant \nBit rate : 185 Kbps \nWidth : 320 pixels \nHeight : 240 pixels \nDisplay aspect ratio : 4:3 \nFrame rate : 30.000 fps \nResolution : 24 bits \nBits/(Pixel*Frame) : 0.080 \nStream size : 1.12 MiB (77%) \nLanguage : English \n\nAudio \nID : 1 \nFormat : WMA2 \nFormat profile : L2 \nCodec ID : 161 \nCodec ID/Info : Windows Media Audio 2 \nDescription of the codec : Windows Media Audio 9.1 - 40 kbps, 32 kHz, stereo 1-pass CBR \nDuration : 50s 944ms \nBit rate mode : Constant \nBit rate : 40.0 Kbps \nChannel(s) : 2 channels \nSampling rate : 32.0 KHz \nResolution : 16 bits \nStream size : 249 KiB (17%) \nLanguage : English \n\nimage = http://welcome.indianstar.org/torrentimg/c42692fdf70b239dfd3f2edefe7c8a6e18115bc0.jpeg\n &lt;a href=&quot;\nhttp://welcome.indianstar.org/thumbnail.php?size=150&amp;path=torrentimg/s1c42692fdf70b239dfd3f2edefe7c8a6e18115bc0.jpeg&quot; rel=&quot;nofollow&quot; target=&quot;_NEW&quot;&gt;\nhttp://welcome.indianstar.org/thumbnail.php?size=150&amp;path=torrentimg/s1c42692fdf70b239dfd3f2edefe7c8a6e18115bc0.jpeg&lt;/a&gt;\n\n","torrent":{"xt":"urn:btih:dc3a75946d4ae1c7cebc70cd01b3b9b815bc7a0d","amp;dn":"Indian+Anal+Sex","amp;tr":["udp%3A%2F%2Ftracker.openbittorrent.com%3A80","udp%3A%2F%2Fopen.demonii.com%3A1337","udp%3A%2F%2Ftracker.coppersurfer.tk%3A6969","udp%3A%2F%2Fexodus.desync.com%3A6969"],"infoHash":"dc3a75946d4ae1c7cebc70cd01b3b9b815bc7a0d","infoHashBuffer":{"type":"Buffer","data":[220,58,117,148,109,74,225,199,206,188,112,205,1,179,185,184,21,188,122,13]},"announce":[],"urlList":[]}}